<?xml version="1.0" standalone="no"?><!DOCTYPE svg PUBLIC "-//W3C//DTD SVG 1.1//EN" "http://www.w3.org/Graphics/SVG/1.1/DTD/svg11.dtd"><svg t="1522409294790" class="icon" style="" viewBox="0 0 1024 1024" version="1.1" xmlns="http://www.w3.org/2000/svg" p-id="6940" xmlns:xlink="http://www.w3.org/1999/xlink" width="500" height="500"><defs><style type="text/css"></style></defs><path d="M750.290415 323.528176c-0.49998 0-1.099956 0-1.699932-0.099996-43.298258-3.999839-87.296489-7.899682-129.794779-11.699529l-48.598045-4.399823c-8.999638-0.799968-17.999276-1.699932-26.998914-2.4999l-12.699489-1.199951-7.199711-0.699972 3.199872-6.499739c1.099956-2.199912 2.899883-3.899843 5.099795-4.999799 0.199992-0.099996 0.399984-0.199992 0.599975-0.399984l6.199751-3.999839c15.299385-9.999598 31.198745-20.299183 46.798118-30.298781-11.099554-20.499175-22.399099-41.298339-33.298661-61.39753-15.699368-28.998834-31.998713-59.097623-48.198061-88.49644-18.299264-33.398657-43.198262-58.197659-74.197016-73.897028-18.39926-9.399622-38.498451-15.099393-59.097622-16.699328l-1.699932-0.199992h-0.699972l-39.998391-3.899843 39.698403-5.999759c27.798882-4.199831 56.097743-4.499819 83.496642-4.899803l9.099634-0.099996c9.499618-0.099996 19.099232-0.299988 28.598849-0.399984C523.499537 0.141184 559.298097-0.358796 594.496682 0.341176c24.399019 0.49998 52.097904 0.99996 79.396806 4.799807 14.199429 1.99992 25.298982 5.299787 34.898596 10.599574 8.899642 4.899803 14.699409 10.499578 18.199268 17.699288 10.799566 21.999115 22.899079 43.698242 34.598608 64.797393 5.299787 9.399622 10.69957 19.199228 15.899361 28.798842 0.699972 1.299948 1.299948 2.699891 1.799927 3.999839 0.199992 0.599976 0.49998 1.399944 0.799968 2.099916 0.699972-0.49998 1.599936-1.199952 2.299908-1.699932 0.99996-0.799968 1.99992-1.599936 3.099875-2.299907 9.799606-6.299747 19.599212-12.599493 29.498813-18.999236L835.68698 97.037287c0.99996-0.699972 1.99992-1.299948 2.999879-1.799928l1.399944-0.799968 4.299827-2.499899 2.499899 4.199831c1.599936 2.599895 1.49994 5.899763-0.299988 8.499658-0.099996 0.099996-0.099996 0.199992-0.199992 0.299988-10.599574 26.09895-21.199147 52.1979-31.898716 78.396846-17.699288 43.598246-36.098548 88.596436-54.097824 132.894655-1.899924 4.999799-5.099795 7.299706-10.099594 7.299706zM544.598689 295.029323c8.899642 0.799968 17.599292 1.699932 26.398938 2.499899l48.598045 4.299827c42.598287 3.799847 86.596517 7.799686 129.794779 11.699529h1.299948c0.199992-0.299988 0.399984-0.699972 0.49998-1.099955 17.999276-44.298218 36.398536-89.396404 54.097824-132.894655l28.198865-69.297212-13.099473 8.399662c-9.799606 6.299747-19.599212 12.699489-29.498813 18.999236-0.699972 0.49998-1.49994 1.099956-2.399904 1.799927-2.999879 2.399903-6.499739 5.099795-10.699569 4.299827-4.699811-0.899964-6.499739-5.599775-7.799687-8.999638-0.299988-0.99996-0.799968-1.899924-1.199951-2.799887-5.199791-9.599614-10.69957-19.299224-15.899361-28.698846-11.799525-21.199147-23.999035-42.99827-34.898596-65.297373-2.599895-5.299787-7.099714-9.499618-13.999437-13.399461-8.499658-4.699811-18.499256-7.69969-31.398737-9.499618-26.698926-3.699851-54.097824-4.199831-78.29685-4.699811-35.098588-0.699972-70.697156-0.099996-105.295765 0.399984-9.499618 0.199992-19.099232 0.299988-28.598849 0.399984l-9.099634 0.099996c-15.299385 0.199992-30.898757 0.399984-46.49813 1.199952 10.099594 2.999879 19.799204 6.899722 29.198825 11.599533 32.798681 16.599332 59.197619 42.898274 78.396847 77.996863 16.199348 29.498813 32.398697 59.497607 48.198061 88.596436 10.999558 20.199187 22.299103 41.198343 33.498653 61.797514 2.899883 5.299787 1.799928 9.399622-3.299868 12.599493-15.399381 9.899602-30.998753 20.099192-46.198141 29.998794zM680.493222 1024l-6.19975-1.49994c-3.099875-0.799968-4.299827-3.499859-4.899803-4.799807l-0.299988-0.599975c-15.999356-27.898878-32.098709-55.69776-48.098065-83.596638-20.799163-36.198544-41.598327-72.297092-62.497486-108.495636-1.599936-2.699891-2.999879-6.499739-0.299988-11.199549 30.298781-52.797876 61.097542-106.495716 90.796347-158.393629l19.39922-33.898636c0.199992-0.399984 0.49998-0.699972 0.899964-1.399944l0.899964-1.399944 9.19963-13.999436v62.597482c0 9.099634 0 18.39926-0.099996 27.598889 18.999236-0.299988 38.398455-0.49998 57.097703-0.699971 34.498612-0.399984 70.09718-0.699972 105.095773-1.399944 23.699047-0.49998 46.49813-8.799646 71.897107-26.198946 21.999115-15.099393 40.798359-34.198624 57.297696-58.297655 0.199992-0.199992 0.299988-0.399984 0.399984-0.699972 1.299948-2.399903 3.199871-4.299827 5.69977-5.399783l7.599695-3.499859-0.49998 8.299666c-0.299988 3.999839-1.299948 7.899682-2.99988 11.499537-0.299988 0.799968-0.599976 1.49994-0.899963 2.299908-7.69969 21.199147-17.89928 40.998351-26.098951 55.897751-15.799364 28.898838-28.898838 59.797595-41.698322 89.596396-4.999799 11.599533-10.099594 23.599051-15.399381 35.398577-12.499497 27.998874-27.398898 60.397571-46.998109 89.796388-7.499698 11.499537-16.39934 22.199107-26.398938 31.598728-12.199509 11.399541-25.898958 16.999316-41.898315 16.999317H779.98922c-18.199268 0-36.698524 0.199992-54.597804 0.399984-14.399421 0.199992-29.198825 0.299988-43.798238 0.399984h-1.199952v1.099955c0.199992 18.599252 0.199992 37.398496 0.199992 55.69776v19.699207l-0.099996 6.599735zM566.797796 819.208238c0.099996 0.299988 0.299988 0.599976 0.49998 0.899963 20.799163 36.198544 41.698323 72.297092 62.497486 108.495636l40.798359 70.897148v-1.599935c0-18.199268 0.099996-36.998512-0.199992-55.597764 0-2.699891 0.199992-6.099755 2.599895-8.499658 2.399903-2.499899 5.599775-2.699891 8.499658-2.699891 14.599413-0.099996 29.398817-0.199992 43.698242-0.399984 18.499256-0.199992 37.598488-0.399984 56.397732-0.399984 13.299465 0 24.799002-4.699811 35.098588-14.299425 9.399622-8.899642 17.799284-18.999236 24.898999-29.898797 19.199228-28.798842 33.898636-60.597562 46.198141-88.296449 5.199791-11.699529 10.299586-23.699047 15.299385-35.29858 12.899481-29.998793 26.198946-61.097542 42.098306-90.396364 5.899763-10.799566 12.899481-24.199027 19.099232-38.698443-13.099473 15.89936-28.298862 29.898797-45.198182 41.598327-27.09891 18.599252-51.597924 27.398898-77.396887 27.898878-35.098588 0.699972-70.697156 0.99996-105.195768 1.399943-19.299224 0.199992-39.198423 0.399984-58.797635 0.699972-2.299907 0.199992-4.599815-0.599976-6.299747-2.199911-2.199912-2.199912-2.199912-5.199791-2.099915-6.599735 0.099996-9.599614 0.099996-19.39922 0.099996-28.898837v-7.499699-19.999195l-11.699529 20.499175C627.995334 712.212542 597.196573 766.010378 566.897792 818.808254c0.099996 0.099996 0 0.299988-0.099996 0.399984z m0 0.099996z" fill="#F39800" p-id="6941"></path><path d="M264.309963 943.003258c-8.599654 0.199992-16.89932-2.699891-23.599051-8.099674-14.499417-11.599533-24.399019-26.498934-32.2987-39.498411-19.799204-32.898677-35.098588-66.997305-47.49809-96.096135-7.899682-18.599252-17.3993-36.79852-26.59893-54.397812-2.699891-5.099795-5.399783-10.299586-8.099674-15.499376-9.899602-19.199228-19.999196-38.598447-29.798801-57.397692-4.599815-8.899642-9.19963-17.799284-13.799445-26.59893-0.49998-0.899964-0.899964-1.799928-1.299948-2.699891l-0.49998-1.199952-13.399461-27.898877 21.499135 22.299103c17.299304 17.89928 39.498411 30.298781 67.797273 37.898475 20.399179 5.399783 41.598327 5.699771 63.497446 5.399783l137.194481-1.49994c45.99815-0.49998 93.496239-0.99996 140.194361-1.499939 2.499899 0 5.299787 0.199992 7.399703 2.399903 2.199912 2.099916 2.499899 5.099795 2.499899 7.499698 0.599976 82.596678 1.199952 164.893367 1.99992 244.490166 0 2.599895-0.199992 5.499779-2.399904 7.69969s-5.099795 2.499899-7.599694 2.4999c-78.496842 0.599976-157.493665 1.399944-234.69056 2.299907l-0.49998-0.099996z m-162.993443-283.388601l3.999839 7.799687c9.799606 18.799244 19.999196 38.298459 29.798801 57.497687 2.599895 5.099795 5.299787 10.299586 7.999678 15.39938 9.299626 17.799284 18.89924 36.198544 26.998914 55.097784 12.299505 28.798842 27.398898 62.497486 46.898114 94.896183 7.399702 12.299505 16.699328 26.298942 29.998793 36.898516 4.999799 4.099835 11.299545 6.199751 17.799284 5.899762 77.196895-0.899964 156.193717-1.699932 234.69056-2.299907h0.099996v-0.099996c-0.799968-79.596798-1.49994-161.793492-1.99992-244.39017-46.698122 0.49998-94.196211 0.99996-140.094365 1.49994l-137.194481 1.49994c-22.499095 0.299988-44.598206 0-66.097341-5.699771-20.499175-5.699771-37.998472-13.499457-52.897872-23.999035z" fill="#0659FF" p-id="6942"></path><path d="M216.111902 672.71413c-12.199509 0-24.699006-0.49998-36.998512-2.699891-29.498813-5.399783-56.097743-18.39926-79.096818-38.798439-15.299385-13.499457-24.299023-31.998713-28.398858-58.097663-7.399702-47.198101 2.499899-91.396324 29.298822-131.494711 2.499899-3.699851 5.299787-7.299706 8.299666-10.599574L36.019146 383.625759l14.599413-1.199952 2.699891-0.199992c1.599936-0.199992 2.799887-0.299988 4.099835-0.299988l89.196412-2.999879 54.997788-1.799928c20.099192-0.699972 40.998351-1.399944 61.397531-2.099915 3.399863-0.099996 7.599694 0.399984 10.299585 6.099754 27.298902 56.197739 54.997788 113.195447 81.896706 168.393227l15.299385 31.298741 0.699971 1.399944 8.099675 16.999316-14.499417-8.999638-15.199389-9.399622c-15.099393-9.399622-29.298821-18.199268-43.698242-27.298902l-0.199992-0.099996-0.199992 0.199992c-12.999477 14.299425-25.09899 29.398817-36.498532 44.99819-7.399702 10.19959-13.999437 21.499135-13.099473 35.098588 0.49998 7.799686 3.499859 13.799445 9.19963 18.299264 1.99992 1.599936 4.099835 3.199871 6.299747 4.799807 2.899883 2.199912 5.799767 4.399823 8.899642 6.899722l10.899561 8.899642h-52.997868l-8.099674 0.099996c-4.599815-0.099996-9.299626 0-13.999437 0zM66.617915 391.525441l57.897671 37.498492-3.999839 4.399823c-4.099835 4.299827-7.899682 8.899642-11.299545 13.799445-25.498974 37.898476-34.7986 79.79679-27.798882 124.394996 3.699851 23.699047 11.699529 40.298379 25.198986 52.1979 21.599131 19.099232 46.598126 31.398737 74.297012 36.398536 16.199348 2.999879 32.998673 2.699891 49.198021 2.399904l8.099674-0.099996c8.099674-0.099996 16.299344-0.099996 24.299023-0.099996-1.199952-0.899964-2.299907-1.799928-3.49986-2.699892-7.899682-6.199751-12.199509-14.799405-12.999477-25.498974-1.099956-16.799324 6.599735-29.898797 14.999397-41.598327 11.599533-15.89936 23.999035-31.198745 37.198504-45.798158 3.999839-4.499819 8.19967-5.099795 13.099473-1.899923 14.299425 9.099634 28.498854 17.89928 43.598246 27.298902l0.49998 0.299988-9.099634-18.89924c-26.898918-55.19778-54.597804-112.295483-81.896706-168.393227-0.099996-0.199992-0.199992-0.299988-0.199992-0.399983s-0.399984 0-0.799968 0c-20.499175 0.799968-41.298339 1.49994-61.497526 2.099915l-54.997788 1.799928-80.29677 2.799887z" fill="#F39800" p-id="6943"></path><path d="M367.105828 386.525642c-1.899924-0.099996-3.699851-0.699972-5.199791-1.699931-67.297293-40.798359-126.994892-76.896907-182.292667-110.295564-4.999799-2.999879-6.099755-7.099714-3.099875-12.299505 13.499457-24.499015 27.398898-49.298017 40.798359-73.297052 25.298982-45.198182 51.397933-91.996299 76.396927-138.394433 5.099795-9.499618 12.999477-16.699328 24.09903-21.999115 26.798922-12.899481 55.19778-13.099473 89.4964-0.799968 39.898395 14.299425 71.297132 40.798359 93.496239 78.796831 3.899843 6.799726 7.799686 13.699449 11.399542 20.399179 1.699932 3.099875 3.399863 6.099755 5.099795 9.099634 0.299988 0.599976 0.699972 1.199952 0.99996 1.899924l1.799927 3.399863-1.299948 2.399903-0.399983 0.799968c-0.399984 0.699972-0.799968 1.49994-1.299948 2.199912L491.400829 189.033586c-38.598447 63.297454-78.396847 128.594827-117.495274 192.992237-1.299948 2.199912-3.599855 4.499819-6.799727 4.499819zM185.513133 266.430473c54.897792 33.098669 113.995415 68.797233 180.592736 109.095612 38.798439-63.89743 78.396847-128.794819 116.59531-191.592294l25.698966-42.298298 0.199992-0.299988-0.199992-0.399984c-1.699932-3.099875-3.399863-6.099755-5.099795-9.19963-3.599855-6.699731-7.399702-13.499457-11.299546-20.199188-20.899159-35.79856-50.597965-60.89755-88.196452-74.397007-31.598729-11.399541-57.597683-11.299545-81.79671 0.399984-9.299626 4.499819-15.499377 10.099594-19.599211 17.699288-24.998994 46.49813-51.197941 93.296247-76.496923 138.494429-13.299465 23.899039-26.998914 48.498049-40.398375 72.697076zM834.18704 691.813362c-6.099755 0-8.69965-4.499819-9.899602-6.399742-7.69969-12.999477-15.399381-26.09895-23.199066-39.098428l-14.499417-24.399018-22.499095-37.998472c-28.198866-47.598085-57.397691-96.896102-86.296529-145.294155-4.499819-7.599694-0.599976-11.599533 3.399863-14.199429 69.897188-45.99815 127.594868-84.096617 181.592696-119.995174 2.199912-1.399944 5.099795-2.999879 8.299666-2.099915 3.599855 0.99996 5.199791 4.299827 6.199751 6.199751 30.398777 61.797514 61.497526 124.594988 91.496319 185.292546l2.599896 5.299787 1.299947 2.599895c1.99992 3.999839 3.899843 7.899682 6.099755 11.599534 5.799767 9.899602 8.69965 21.199147 8.19967 32.698685v0.199992c-1.299948 19.599212-4.699811 42.398295-20.299183 62.697478-27.59889 35.79856-55.897752 58.997627-89.196413 72.997063-11.899521 4.999799-25.198986 8.099674-41.798318 9.799606-0.49998 0.099996-0.99996 0.199992-1.49994 0.099996z m-0.199992-9.899602h0.599976c15.599373-1.599936 27.998874-4.499819 38.998431-9.099634 31.598729-13.299465 58.597643-35.498572 85.096577-69.797192 13.899441-18.099272 16.999316-38.998431 18.299264-57.097703 0.399984-9.599614-1.899924-18.999236-6.799726-27.298902-2.399903-3.999839-4.399823-8.19967-6.399743-12.299506l-1.299947-2.599895-2.599896-5.299787c-29.998793-60.697558-61.097542-123.495032-91.496319-185.392542l-0.099996-0.199992c-53.897832 35.79856-111.595511 73.997023-181.4927 119.895177l-0.49998 0.299988 0.199992 0.399984c28.898838 48.398053 57.997667 97.69607 86.296529 145.294155l22.499095 37.998472 14.499417 24.399018c7.69969 12.999477 15.499377 26.09895 23.199066 39.098428 0.199992 0.699972 0.599976 1.199952 0.99996 1.699931z" fill="#0659FF" p-id="6944"></path></svg>