<?xml version="1.0" standalone="no"?><!DOCTYPE svg PUBLIC "-//W3C//DTD SVG 1.1//EN" "http://www.w3.org/Graphics/SVG/1.1/DTD/svg11.dtd"><svg t="1522408699689" class="icon" style="" viewBox="0 0 1024 1024" version="1.1" xmlns="http://www.w3.org/2000/svg" p-id="5226" xmlns:xlink="http://www.w3.org/1999/xlink" width="500" height="500"><defs><style type="text/css"></style></defs><path d="M529.075399 43.512003c-248.28683 0-449.583438 201.302749-449.583438 449.624371 0 248.295016 201.296609 449.593671 449.583438 449.593671 248.281713 0 449.63665-201.301725 449.63665-449.593671C978.711026 244.814752 777.357112 43.512003 529.075399 43.512003zM549.875121 695.647647c-13.878079 16.356526-27.865651 32.547277-41.963741 48.681746-4.846378 5.453199-12.060687 5.89322-17.127076 1.488911-5.2864-4.295839-6.002714-11.234879-1.156336-17.072841 7.54586-9.087982 16.081257-18.503423 24.561395-28.361955l-216.265532-0.11154c-0.055259 0-0.055259 0-0.109494 0l-0.715291 0c-12.886495 0.057305-25.497721-6.608511-32.437783-18.557658-6.939039-12.004405-6.387477-26.215058 0.109494-37.393655l-0.055259 0 0.385786-0.605797c0-0.056282 0.055259-0.056282 0.055259-0.110517l96.154967-168.518065c0.055259-0.109494 0.165776-0.276293 0.220011-0.385786l0.661056-1.211595 0.055259 0.054235c0.991584-1.486864 2.312672-2.752694 3.910053-3.744277 5.836939-3.358491 13.272281-1.376347 16.630772 4.460592 1.927909 3.304256 2.037403 7.103792 0.825808 10.408047l0.055259 0-0.330528 0.661056c-0.275269 0.661056-0.661056 1.321088-1.101077 1.926886l-78.862115 139.220808c0.055259 0 0.055259 0 0.055259 0l-17.291828 30.068829 0 0.055259c-2.257413 3.800559-2.532683 8.646937-0.165776 12.778024 2.367931 4.074805 6.719028 6.277984 11.17962 6.221702l0 0.056282 34.695197-0.056282c0 0.056282 0 0.056282 0 0.056282l184.104041 0.330528c-5.176906-6.829546-10.243295-13.602809-14.703887-19.441794-3.358491-4.514827-6.939039-8.921183-10.243295-13.491269-4.405333-6.223748-3.414773-13.274328 2.312672-17.402345 5.176906-3.9121 12.446473-2.753717 17.016559 3.02694 10.794857 13.934361 21.47715 28.033473 32.272008 42.020022 2.366907 3.137457 4.79112 6.279007 7.269567 9.417487C553.620421 684.910095 553.839409 691.077561 549.875121 695.647647zM571.903833 259.481799l-17.347087-30.068829-0.056282 0c-2.146896-3.855818-6.223748-6.554276-10.959609-6.554276s-8.866948 2.698458-11.013845 6.554276l-0.056282 0-17.291828 30.068829c-0.055259-0.055259-0.055259-0.055259-0.055259-0.055259l-92.463901 159.211095c8.481162-1.101077 16.906042-2.037403 24.176632-3.028986 5.616928-0.605797 11.178597-1.542122 16.796548-2.092661 7.600095-0.716314 13.217023 3.690042 13.932314 10.683317 0.77055 6.443759-3.854794 12.171204-11.124362 13.217023-17.512862 2.367931-35.080983 4.626367-52.592822 6.939039-3.911076 0.441045-7.821129 0.991584-11.786441 1.597381-6.002714 0.825808-11.45489-2.092661-13.437034-7.820106-7.214309-20.211321-14.208607-40.421618-21.147646-60.689221-2.258437-6.939039 0.991584-13.382798 7.323802-15.584953 6.388501-2.423189 12.721743 0.441045 15.364943 7.489578 4.074805 11.124362 7.985882 23.239284 12.226462 35.521005l108.435665-187.133028c0-0.055259 0-0.055259 0.055259-0.109494l0.330528-0.605797c6.387477-11.234879 18.449187-18.779715 32.326243-18.779715 13.823843 0 25.88453 7.544837 32.272008 18.779715l0.056282 0 0.329505 0.605797c0 0.054235 0.055259 0.054235 0.055259 0.109494l97.697089 167.636998c0.109494 0.109494 0.164752 0.220011 0.220011 0.384763l0.715291 1.156336-0.054235 0c0.77055 1.65264 1.26583 3.414773 1.26583 5.287423 0 6.718005-5.452175 12.170181-12.172227 12.170181-3.798513 0-7.157004-1.762133-9.41544-4.51585l-0.055259 0.055259-0.385786-0.605797c-0.441045-0.604774-0.771573-1.211595-1.102101-1.871627l-81.009012-138.009214C571.903833 259.426541 571.903833 259.481799 571.903833 259.481799zM819.119261 681.824827c-7.049556 11.949146-19.660782 18.504446-32.602535 18.33867l-0.715291 0c0 0-0.056282 0-0.10847 0l-194.018855-0.605797c-0.163729 0-0.275269 0-0.441045 0l-1.376347 0 0-0.056282c-1.762133-0.162706-3.524267-0.661056-5.176906-1.595334-5.782703-3.415796-7.710612-10.850116-4.295839-16.688077 1.927909-3.25002 5.121648-5.231141 8.645914-5.782703l0-0.109494 0.661056 0c0.771573-0.056282 1.487887-0.056282 2.258437 0l159.982668 0 0-0.056282 34.694173 0.277316 0-0.057305c4.461615 0.109494 8.81169-2.036379 11.234879-6.167466 2.423189-4.074805 2.203178-8.975419-0.109494-12.777001l0.055259-0.054235-17.128099-30.1773 0.056282 0-90.482781-160.314219c-3.358491 7.820106-6.773264 15.58393-9.637498 22.358217-2.313695 5.176906-4.350075 10.409071-6.66377 15.531741-3.248997 6.883781-9.91379 9.526981-16.300244 6.607488-5.948479-2.644223-8.537444-9.471722-5.728468-16.301268 6.773264-16.244986 13.766538-32.547277 20.651342-48.847521 1.542122-3.580548 3.085268-7.214309 4.571109-10.904351 2.313695-5.671163 7.600095-8.866948 13.603833-7.65433 20.980847 4.019547 41.963741 8.149611 62.946634 12.500709 7.15905 1.542122 11.069103 7.599072 9.801227 14.153348-1.210571 6.718005-6.828522 10.738575-14.262842 9.471722-11.6749-2.14792-24.067138-4.901637-36.84414-7.43432l106.453521 188.234105c0.055259 0.054235 0.055259 0.109494 0.055259 0.109494l0.330528 0.605797C825.673537 655.665027 826.113559 669.87261 819.119261 681.824827z" p-id="5227"></path></svg>