<?xml version="1.0" standalone="no"?><!DOCTYPE svg PUBLIC "-//W3C//DTD SVG 1.1//EN" "http://www.w3.org/Graphics/SVG/1.1/DTD/svg11.dtd"><svg t="1522408728703" class="icon" style="" viewBox="0 0 1024 1024" version="1.1" xmlns="http://www.w3.org/2000/svg" p-id="5484" xmlns:xlink="http://www.w3.org/1999/xlink" width="500" height="500"><defs><style type="text/css"></style></defs><path d="M529.075399 63.978127c57.936527 0 114.13241 11.343349 167.028131 33.716916 51.101865 21.614274 97.002264 52.5611 136.424112 91.980901 39.424918 39.420825 70.375837 85.319178 91.993181 136.420019 22.375613 52.896744 33.723056 109.09672 33.723056 167.040411 0 57.935504-11.347442 114.131387-33.723056 167.025061-21.617343 51.096748-52.568263 96.992031-91.993181 136.411833-39.421848 39.418778-85.324294 70.364581-136.424112 91.978854-52.893674 22.370497-109.089557 33.714869-167.028131 33.714869-57.935504 0-114.12934-11.343349-167.019944-33.714869-51.096748-21.61325-96.989985-52.55803-136.40774-91.977831-39.416731-39.418778-70.361511-85.313038-91.974761-136.411833-22.37152-52.892651-33.714869-109.088534-33.714869-167.026084 0-57.944713 11.343349-114.145713 33.715893-167.041434 21.61325-51.101865 52.55803-97.000218 91.974761-136.420019 39.416731-39.418778 85.310991-70.366627 136.40774-91.979878C414.946059 75.321476 471.139895 63.978127 529.075399 63.978127M529.075399 43.512003c-248.28683 0-449.583438 201.302749-449.583438 449.624371 0 248.295016 201.296609 449.594695 449.583438 449.594695 248.281713 0 449.63665-201.301725 449.63665-449.594695C978.711026 244.814752 777.357112 43.512003 529.075399 43.512003L529.075399 43.512003z" p-id="5485"></path><path d="M641.877511 393.08568l0.385786 0.605797 0.055259-0.055259c2.258437 2.753717 5.616928 4.51585 9.41544 4.51585 6.719028 0 12.172227-5.452175 12.172227-12.170181 0-1.87265-0.49528-3.634784-1.26583-5.287423l0.054235 0-0.715291-1.156336c-0.055259-0.164752-0.109494-0.275269-0.220011-0.384763l-97.697089-167.636998c0-0.055259-0.055259-0.055259-0.055259-0.109494l-0.329505-0.605797-0.056282 0c-6.387477-11.234879-18.448164-18.779715-32.272008-18.779715-13.877055 0-25.938766 7.544837-32.326243 18.779715l0 0-0.330528 0.605797c-0.055259 0.054235-0.055259 0.054235-0.055259 0.109494L390.201491 398.648372c-4.240581-12.280698-8.150634-24.396643-12.226462-35.521005-2.6432-7.049556-8.976442-9.91379-15.364943-7.489578-6.332219 2.202155-9.582239 8.645914-7.323802 15.584953 6.939039 20.266579 13.932314 40.4779 21.147646 60.689221 1.983167 5.727445 7.435343 8.645914 13.437034 7.820106 3.965312-0.605797 7.875365-1.156336 11.786441-1.597381 17.511839-2.313695 35.07996-4.571109 52.592822-6.939039 7.269567-1.045819 11.894911-6.773264 11.124362-13.217023-0.716314-6.993275-6.332219-11.399631-13.932314-10.683317-5.617951 0.550539-11.17962 1.486864-16.796548 2.092661-7.269567 0.991584-15.69547 1.927909-24.176632 3.028986l92.463901-159.211095c0 0 0 0 0.055259 0.055259l17.291828-30.068829 0.056282 0c2.146896-3.855818 6.277984-6.554276 11.013845-6.554276s8.812713 2.698458 10.959609 6.554276l0.056282 0 17.347087 30.068829c0 0 0-0.055259 0.055259-0.055259l81.009012 138.009214C641.105938 391.874085 641.437489 392.480906 641.877511 393.08568z" p-id="5486"></path><path d="M530.413883 664.478763c-10.794857-13.987572-21.47715-28.085662-32.272008-42.020022-4.571109-5.780657-11.840676-6.939039-17.016559-3.02694-5.727445 4.128017-6.718005 11.178597-2.312672 17.402345 3.304256 4.570085 6.884804 8.975419 10.243295 13.491269 4.460592 5.838985 9.528004 12.612249 14.703887 19.441794l-184.104041-0.330528c0 0 0 0 0-0.056282l-34.695197 0.056282 0-0.056282c-4.460592 0.056282-8.81169-2.146896-11.17962-6.221702-2.366907-4.131087-2.091638-8.977465 0.165776-12.778024l0-0.055259 17.291828-30.068829c0 0 0 0-0.055259 0l78.862115-139.220808c0.440022-0.604774 0.825808-1.26583 1.101077-1.926886l0.330528-0.661056-0.055259 0c1.211595-3.304256 1.102101-7.103792-0.825808-10.408047-3.358491-5.837962-10.793834-7.820106-16.630772-4.460592-1.597381 0.991584-2.919493 2.258437-3.910053 3.745301l-0.055259-0.055259-0.661056 1.211595c-0.055259 0.109494-0.164752 0.275269-0.220011 0.384763l-96.154967 168.518065c0 0.055259-0.055259 0.055259-0.055259 0.110517l-0.385786 0.605797 0.055259 0c-6.497994 11.178597-7.048533 25.38925-0.109494 37.393655 6.939039 11.949146 19.550265 18.61394 32.437783 18.557658l0 0 0.715291 0c0.055259 0 0.055259 0 0.109494 0l216.265532 0.11154c-8.481162 9.858532-17.016559 19.273972-24.561395 28.361955-4.845355 5.836939-4.130064 12.775978 1.156336 17.072841 5.066389 4.40431 12.280698 3.964288 17.127076-1.488911 14.098089-16.135492 28.086685-32.32522 41.963741-48.681746 3.964288-4.570085 3.745301-10.737552 0-15.529695C535.20398 670.756747 532.780791 667.61622 530.413883 664.478763z" p-id="5487"></path><path d="M807.037085 638.20947 807.037085 638.20947l-0.330528-0.605797c0 0 0-0.056282-0.055259-0.109494L700.196755 449.25905c12.777001 2.533706 25.169239 5.287423 36.84414 7.43432 7.43432 1.266853 13.052271-2.753717 14.262842-9.471722 1.267876-6.554276-2.642177-12.611226-9.801227-14.153348-20.982894-4.351098-41.965787-8.481162-62.946634-12.500709-6.003737-1.212618-11.290137 1.983167-13.603833 7.65433-1.485841 3.690042-3.028986 7.324826-4.571109 10.904351-6.884804 16.300244-13.878079 32.602535-20.651342 48.847521-2.808976 6.829546-0.221034 13.657045 5.728468 16.301268 6.386454 2.919493 13.051247 0.276293 16.300244-6.608511 2.313695-5.121648 4.350075-10.353812 6.66377-15.530718 2.864234-6.774287 6.279007-14.539134 9.637498-22.358217l90.482781 160.314219-0.056282 0 17.128099 30.1773-0.055259 0.054235c2.313695 3.801583 2.533706 8.702196 0.109494 12.777001-2.423189 4.131087-6.773264 6.277984-11.234879 6.167466l0 0.057305-34.694173-0.277316 0 0.056282L579.756685 669.104107c-0.77055-0.056282-1.486864-0.056282-2.258437 0l-0.661056 0 0 0.109494c-3.524267 0.551562-6.718005 2.533706-8.645914 5.782703-3.414773 5.837962-1.486864 13.272281 4.295839 16.688077 1.651616 0.933255 3.414773 1.431605 5.176906 1.595334l0 0.056282 1.376347 0c0.165776 0 0.277316 0 0.441045 0l194.018855 0.605797c0.053212 0 0.10847 0 0.10847 0l0.715291 0 0 0c12.941753 0.165776 25.554002-6.389524 32.602535-18.33867C813.920866 663.650909 813.480844 649.443325 807.037085 638.20947z" p-id="5488"></path></svg>