<?xml version="1.0" standalone="no"?><!DOCTYPE svg PUBLIC "-//W3C//DTD SVG 1.1//EN" "http://www.w3.org/Graphics/SVG/1.1/DTD/svg11.dtd"><svg t="1522408710467" class="icon" style="" viewBox="0 0 1040 1024" version="1.1" xmlns="http://www.w3.org/2000/svg" p-id="5355" xmlns:xlink="http://www.w3.org/1999/xlink" width="507.8125" height="500"><defs><style type="text/css"></style></defs><path d="M53.586452 84.304058c0 0-115.073852 420.394652-7.453762 623.801319 90.236164 170.586167 272.588305 212.387201 371.096876 222.25085-0.154519 0.287549-0.198521 0.620124-0.354064 0.907673 1.238201-0.310062 2.056845-0.442068 3.03001-0.620124 38.948057 3.759627 64.138786 2.521426 64.138786 2.521426s102.002139-331.640236-62.480007-511.7585C266.083148 251.129574 53.586452 84.304058 53.586452 84.304058L53.586452 84.304058 53.586452 84.304058zM445.361277 890.502543c-0.022513-0.110517-0.110517-0.265036-0.13303-0.398066C454.716342 889.550869 453.788204 890.236484 445.361277 890.502543L445.361277 890.502543 445.361277 890.502543zM445.073728 889.595894c-13.712303-61.506842-139.8-168.81687-220.104977-291.187919C149.21851 483.045551 141.853775 300.980959 122.390491 240.159732c-7.850805 16.189727-17.140379 84.751243-9.532097 152.406109 7.254218 64.491827 17.715477 116.201535 50.359968 183.612854 57.193607 118.147864 213.558887 239.435231 249.675456 313.37115-75.794244-5.528923-242.465241-38.416961-329.539388-205.707059-79.045287-151.809521-8.581446-546.261315-8.581446-546.261315 0 0 182.02059 182.462658 307.11261 299.637358C505.253342 552.868803 446.998567 879.045607 445.073728 889.595894L445.073728 889.595894 445.073728 889.595894zM1014.225379 396.038942c0 0-226.187509 38.948057-366.783641 158.267607C473.427496 701.957353 558.930869 938.385087 558.930869 938.385087s279.554974 24.085558 393.32411-134.226051C1059.742039 654.53939 1014.225379 396.038942 1014.225379 396.038942L1014.225379 396.038942 1014.225379 396.038942zM917.111574 785.137821c-63.453171 88.842421-220.504066 117.39471-294.019407 126.087697 51.863205-32.113395 119.209032-107.797122 180.936909-181.334975 69.623707-82.915431 108.747773-171.09475 105.231693-226.343051-6.081509 13.424754-22.823821 70.331835-33.971719 86.055958-29.414937 41.60149-67.676355 97.600899-106.247836 143.603629-69.115124 82.296331-133.473921 147.297764-186.930413 168.109766-5.970992-49.099255-18.732643-224.197178 87.560218-313.195142 105.142665-88.068801 313.106114-150.835334 313.106114-150.835334S996.664422 673.736615 917.111574 785.137821L917.111574 785.137821 917.111574 785.137821z" p-id="5356"></path></svg>