<?xml version="1.0" standalone="no"?><!DOCTYPE svg PUBLIC "-//W3C//DTD SVG 1.1//EN" "http://www.w3.org/Graphics/SVG/1.1/DTD/svg11.dtd"><svg t="1522409356384" class="icon" style="" viewBox="0 0 1024 1024" version="1.1" xmlns="http://www.w3.org/2000/svg" p-id="8048" xmlns:xlink="http://www.w3.org/1999/xlink" width="500" height="500"><defs><style type="text/css"></style></defs><path d="M511.518118 1019.497412C231.634824 1019.497412 3.930353 791.808 3.930353 511.924706S231.634824 4.336941 511.518118 4.336941s507.572706 227.704471 507.572706 507.587765-227.689412 507.572706-507.572706 507.572706z m0-985.042824c-263.273412 0-477.470118 214.196706-477.470118 477.470118 0 263.258353 214.196706 477.455059 477.470118 477.455059 263.258353 0 477.455059-214.196706 477.455058-477.455059 0-263.273412-214.181647-477.470118-477.455058-477.470118z" p-id="8049"></path><path d="M340.690824 584.990118h-16.865883a7.529412 7.529412 0 0 1-6.26447-3.343059l-51.516236-77.086118v72.899765a7.529412 7.529412 0 0 1-7.529411 7.529412h-15.781648a7.529412 7.529412 0 0 1-7.529411-7.529412V453.12a7.529412 7.529412 0 0 1 7.529411-7.529412h16.880942a7.529412 7.529412 0 0 1 6.26447 3.343059l51.516236 77.025882V453.12a7.529412 7.529412 0 0 1 7.529411-7.529412h15.766589a7.529412 7.529412 0 0 1 7.529411 7.529412v124.355765a7.529412 7.529412 0 0 1-7.529411 7.514353zM480.421647 584.990118h-92.792471a7.529412 7.529412 0 0 1-7.529411-7.529412V453.12a7.529412 7.529412 0 0 1 7.529411-7.529412h89.916236a7.529412 7.529412 0 0 1 7.529412 7.529412v14.682353a7.529412 7.529412 0 0 1-7.529412 7.529412h-65.92753v23.024941h61.244236a7.529412 7.529412 0 0 1 7.529411 7.529412v14.592a7.529412 7.529412 0 0 1-7.529411 7.529411h-61.244236v27.27153h68.803765a7.529412 7.529412 0 0 1 7.529412 7.529412v14.682353a7.529412 7.529412 0 0 1-7.529412 7.499294zM636.596706 584.990118H620.724706a7.499294 7.499294 0 0 1-7.243294-5.526589l-22.753883-82.206117-22.889411 82.221176a7.514353 7.514353 0 0 1-7.243294 5.51153h-16.790589a7.514353 7.514353 0 0 1-7.273411-5.601883l-32.978824-124.355764a7.514353 7.514353 0 0 1 7.273412-9.456942h16.865882a7.529412 7.529412 0 0 1 7.333647 5.827765l17.498353 75.414588 21.353412-75.745882a7.529412 7.529412 0 0 1 7.243294-5.481412h19.832471c3.373176 0 6.324706 2.228706 7.243294 5.481412l17.814588 62.960941c1.024 3.584 2.002824 7.152941 2.891294 10.676706l17.92-73.366588a7.529412 7.529412 0 0 1 7.303529-5.752471h16.534589a7.529412 7.529412 0 0 1 7.258353 9.517177l-34.093177 124.355764a7.439059 7.439059 0 0 1-7.228235 5.526589zM748.634353 583.815529c-12.242824 0-22.784-1.867294-31.277177-5.556705a46.968471 46.968471 0 0 1-21.187764-17.573648 49.362824 49.362824 0 0 1-8.07153-26.277647 7.529412 7.529412 0 0 1 6.881883-7.710117l15.525647-1.355294a7.664941 7.664941 0 0 1 8.131764 6.625882c0.572235 4.984471 1.882353 9.020235 3.885177 11.971765 1.882353 2.785882 4.999529 5.12 9.246118 6.957176 8.854588 3.870118 21.564235 4.050824 30.027294 0.798118 3.373176-1.310118 5.857882-3.026824 7.333647-5.074824a10.375529 10.375529 0 0 0 2.078117-6.234353 8.688941 8.688941 0 0 0-1.792-5.586823c-0.963765-1.234824-3.132235-3.087059-7.920941-4.909177-2.093176-0.828235-7.378824-2.454588-21.217882-5.797647-12.227765-2.936471-20.645647-5.707294-25.795765-8.448-7.077647-3.689412-12.498824-8.478118-16.097882-14.215529a35.749647 35.749647 0 0 1-5.526588-19.471059c0-7.740235 2.198588-15.043765 6.565647-21.714823 4.412235-6.731294 10.827294-11.866353 19.06447-15.269648 16.143059-6.656 37.797647-6.159059 52.976941 0.225883 8.432941 3.538824 15.028706 8.914824 19.636706 15.932235 4.532706 6.881882 7.002353 14.772706 7.333647 23.43153a7.544471 7.544471 0 0 1-6.957176 7.815529l-15.781647 1.189647c-4.773647 0.240941-7.634824-2.680471-8.056471-6.701176-0.632471-5.888-2.575059-10.074353-5.903059-12.830118-3.478588-2.846118-9.170824-4.306824-16.896-4.306824-10.134588 0-14.863059 2.093176-17.046588 3.824942-3.553882 2.861176-4.020706 5.406118-4.020706 7.318588 0 2.334118 0.692706 3.960471 2.319059 5.406117 0.361412 0.331294 3.885176 3.162353 21.473882 7.137883 13.959529 3.162353 23.431529 5.918118 28.958118 8.402823 8.493176 3.930353 14.923294 9.080471 19.154824 15.329883 4.291765 6.384941 6.475294 13.748706 6.475294 21.910588 0 8.056471-2.319059 15.736471-6.896941 22.814118-4.547765 7.032471-11.113412 12.544-19.516236 16.399058a65.084235 65.084235 0 0 1-27.105882 5.541647z" p-id="8050"></path></svg>