<?xml version="1.0" standalone="no"?><!DOCTYPE svg PUBLIC "-//W3C//DTD SVG 1.1//EN" "http://www.w3.org/Graphics/SVG/1.1/DTD/svg11.dtd"><svg t="1522409326057" class="icon" style="" viewBox="0 0 1024 1024" version="1.1" xmlns="http://www.w3.org/2000/svg" p-id="7219" xmlns:xlink="http://www.w3.org/1999/xlink" width="500" height="500"><defs><style type="text/css"></style></defs><path d="M632.2944 818.4576C571.648 803.3024 250.9824 707.2512 225.9456 364.5952c0 0-56.7296 206.2592 66.816 398.1568 89.6512 139.392 221.5168 133.4016 295.6288 100.4032 157.6448 13.6448 253.2608-44.6976 253.2608-44.6976C770.7904 844.16 651.392 822.2464 632.2944 818.4576M280.1408 141.2096c-23.7312 102.1184-25.344 188.7488-12.3392 261.9904 13.7216-58.0864 39.1424-84.4288 39.1424-84.4288-25.344 68.3008-18.8928 142.1824-15.2576 169.856 14.4128 37.3248 32.7424 70.4768 53.8368 99.5328-0.0768-104.832 40.6784-165.4784 40.6784-165.4784-21.4016 98.816 5.6576 200.3712 13.952 227.584 26.2144 25.088 53.9648 45.952 81.2032 63.2576-26.6496-124.6976 9.344-206.2336 9.344-206.2336-3.9936 106.0352 39.6288 206.8224 56.9344 242.5856 66.1504 31.0528 117.504 41.088 117.504 41.088s83.712-238.7968-144.4096-401.9456C351.3856 267.8016 280.1408 141.2096 280.1408 141.2096" p-id="7220"></path></svg>